<svg width="95" height="96" viewBox="0 0 95 96" fill="none" xmlns="http://www.w3.org/2000/svg">
<path d="M76.8042 34.3687C75.8587 34.055 74.9358 33.7637 73.9903 33.4948C74.1479 32.845 74.283 32.2176 74.418 31.5678C76.5566 21.2605 75.1384 12.9923 70.411 10.2586C65.8412 7.6594 58.3899 10.3707 50.8711 16.8911C50.1282 17.5409 49.3853 18.2131 48.71 18.8854C48.2373 18.4372 47.7645 17.9891 47.2693 17.5633C39.3678 10.5723 31.4438 7.637 26.7164 10.3931C22.1691 13.0147 20.8184 20.8124 22.7319 30.5594C22.9119 31.523 23.1371 32.4865 23.3847 33.45C22.2816 33.7637 21.1786 34.0998 20.1656 34.4583C10.8909 37.6625 4.25 42.7041 4.25 47.9249C4.25 53.325 11.3411 58.7251 20.976 62.019C21.7639 62.2879 22.5293 62.5344 23.3397 62.7584C23.0695 63.7891 22.8444 64.8199 22.6418 65.873C20.8184 75.4632 22.2366 83.0592 26.7839 85.6809C31.4663 88.3697 39.3453 85.6136 47.0217 78.9139C47.6295 78.3762 48.2373 77.816 48.8451 77.2334C49.6105 77.9728 50.3984 78.6899 51.2088 79.3845C58.6375 85.7481 65.9762 88.3249 70.5236 85.7033C75.2059 83.0144 76.7367 74.8358 74.7557 64.8871C74.5981 64.1253 74.418 63.341 74.2379 62.5568C74.8007 62.3999 75.341 62.2207 75.8588 62.0638C85.8763 58.77 93.125 53.4147 93.125 47.9473C93.08 42.6817 86.259 37.5953 76.8042 34.3687ZM53.3248 19.692C59.7856 14.0902 65.7962 11.8943 68.5425 13.4628C71.469 15.1434 72.5946 21.9103 70.7712 30.8059C70.6586 31.3885 70.5236 31.9711 70.366 32.5313C66.5165 31.6574 62.5995 31.0524 58.6826 30.6939C56.4314 27.4897 53.9552 24.3975 51.2763 21.5294C51.9742 20.902 52.627 20.297 53.3248 19.692ZM33.2222 56.8654C34.1001 58.3666 35.0006 59.8679 35.9686 61.3468C33.2672 61.0555 30.5658 60.6298 27.9095 60.0472C28.6749 57.56 29.6203 54.9832 30.7459 52.3615C31.5563 53.8852 32.3667 55.3865 33.2222 56.8654ZM27.977 36.094C30.4758 35.5338 33.1321 35.0857 35.901 34.7496C34.9781 36.1836 34.0776 37.6625 33.2222 39.1414C32.3667 40.6202 31.5338 42.1215 30.7459 43.6452C29.6654 41.046 28.7424 38.514 27.977 36.094ZM32.7269 47.9922C33.875 45.617 35.1131 43.2643 36.4413 40.9787C37.7695 38.6932 39.1877 36.4525 40.6734 34.2566C43.2848 34.0774 45.9411 33.9653 48.6425 33.9653C51.3438 33.9653 54.0227 34.0774 56.6115 34.2566C58.0973 36.4301 59.493 38.6708 60.8211 40.9339C62.1493 43.2194 63.4099 45.5498 64.5805 47.9249C63.4099 50.3001 62.1718 52.6528 60.8211 54.9832C59.493 57.2911 58.0973 59.5094 56.6115 61.7277C54.0227 61.907 51.3438 61.9966 48.5975 61.9966C45.8511 61.9966 43.2397 61.907 40.6734 61.7501C39.1652 59.5542 37.747 57.3135 36.3963 55.0056C35.1131 52.7201 33.8975 50.3673 32.7269 47.9922ZM64.0853 56.843C64.9632 55.3193 65.7962 53.7956 66.6291 52.2271C67.7321 54.7367 68.7226 57.2687 69.5556 59.8903C66.8542 60.4953 64.1303 60.9659 61.4064 61.2796C62.3294 59.8231 63.2074 58.3218 64.0853 56.843ZM66.5841 43.6228C65.7736 42.0991 64.9407 40.5754 64.0628 39.0965C63.2073 37.6177 62.3294 36.1836 61.4064 34.7496C64.1978 35.0857 66.8767 35.5562 69.3755 36.1388C68.5876 38.6708 67.6421 41.158 66.5841 43.6228ZM48.6875 24.1734C50.5109 26.1452 52.2218 28.2067 53.8201 30.3578C50.3759 30.2009 46.9316 30.2009 43.4874 30.3578C45.1982 28.1395 46.9541 26.0556 48.6875 24.1734ZM28.5398 13.5973C31.4663 11.8943 37.927 14.3143 44.748 20.3418C45.1757 20.7227 45.6259 21.1261 46.0762 21.5518C43.3748 24.4423 40.8986 27.5121 38.6249 30.7163C34.7079 31.0524 30.8134 31.6574 26.964 32.5089C26.7389 31.635 26.5363 30.7387 26.3562 29.82C24.7354 21.4622 25.7934 15.1658 28.5398 13.5973ZM24.2851 59.1285C23.5648 58.9268 22.8444 58.7027 22.1241 58.4563C18.4322 57.2911 14.2225 55.4761 11.1835 53.0562C9.42762 51.8462 8.25703 49.9864 7.91936 47.8801C7.91936 44.7207 13.4121 40.665 21.3136 37.9314C22.3041 37.5953 23.3172 37.2816 24.3077 36.9903C25.4782 40.7323 26.919 44.4294 28.5623 47.9697C26.919 51.5997 25.4782 55.3417 24.2851 59.1285ZM44.5229 76.0682C41.6639 78.6675 38.3323 80.7513 34.7304 82.163C32.7944 83.0816 30.5883 83.1713 28.6073 82.387C25.8384 80.7961 24.6903 74.7014 26.2661 66.5004C26.4462 65.5369 26.6714 64.5734 26.919 63.6099C30.8134 64.439 34.7304 64.9991 38.715 65.3128C41.0111 68.5395 43.5324 71.6316 46.2112 74.5446C45.6485 75.0599 45.0857 75.5977 44.5229 76.0682ZM48.7775 71.8781C46.9991 69.9735 45.2433 67.8672 43.5099 65.6041C45.1757 65.6713 46.8866 65.7162 48.62 65.7162C50.3984 65.7162 52.1543 65.6713 53.8876 65.6041C52.3343 67.7776 50.601 69.8615 48.7775 71.8781ZM71.469 77.0541C71.3115 79.1604 70.2759 81.1322 68.6101 82.4543C65.8412 84.0452 59.9657 81.9613 53.6175 76.5388C52.8971 75.9114 52.1543 75.2392 51.4114 74.5446C54.0677 71.6316 56.5215 68.5395 58.7276 65.2904C62.7121 64.9543 66.6516 64.3493 70.5686 63.4754C70.7487 64.1925 70.9062 64.8871 71.0413 65.5817C71.8967 69.3237 72.0318 73.2225 71.469 77.0541ZM74.6431 58.4787C74.1479 58.6355 73.6751 58.7924 73.1574 58.9268C71.9418 55.1624 70.456 51.4877 68.7226 47.9025C70.3885 44.3846 71.7842 40.7547 72.9773 37.0351C73.8778 37.304 74.7557 37.5729 75.5886 37.8417C83.6702 40.5978 89.3656 44.7207 89.3656 47.8577C89.3656 51.2636 83.31 55.633 74.6431 58.4787Z" fill="url(#paint0_linear_214_12)"/>
<path d="M61.7773 10.2432C65.0328 9.1162 67.9261 9.06138 70.1514 10.2236L70.3643 10.3398C72.6945 11.6874 74.2218 14.4066 74.8975 18.0898C75.5728 21.7717 75.3938 26.403 74.3262 31.5488C74.1912 32.1982 74.0566 32.8244 73.8994 33.4727L73.8779 33.5605L73.9648 33.585C74.9085 33.8533 75.8299 34.1446 76.7744 34.458V34.457C81.4951 36.0681 85.5531 38.1427 88.4346 40.4668C91.2281 42.72 92.9023 45.1966 93.0244 47.7051L93.0312 47.9482C93.0309 50.639 91.2457 53.3202 88.1904 55.7471C85.1379 58.1717 80.8329 60.3291 75.832 61.9736C75.3109 62.1315 74.7746 62.3102 74.2129 62.4668L74.127 62.4902L74.1465 62.5781C74.2365 62.9703 74.3269 63.3621 74.4141 63.751L74.6641 64.9062C75.6527 69.8717 75.7641 74.3903 75.0469 77.999C74.3292 81.6097 72.7848 84.2965 70.4766 85.6221C68.2349 86.9144 65.2942 86.9315 61.9766 85.8242C58.6598 84.7172 54.9779 82.4901 51.2695 79.3135C50.4605 78.6201 49.6742 77.9041 48.9102 77.166L48.8457 77.1035L48.7803 77.166C48.4769 77.4568 48.1735 77.7419 47.8701 78.0215L46.96 78.8438C43.1283 82.1879 39.2498 84.5441 35.75 85.7295C32.358 86.8783 29.3342 86.9231 27.0498 85.7197L26.8311 85.5996C24.5894 84.3072 23.1081 81.782 22.416 78.3711C21.7242 74.9612 21.8232 70.6768 22.7334 65.8896C22.9357 64.8383 23.1613 63.8102 23.4307 62.7822L23.4541 62.6924L23.3643 62.668C22.5564 62.4446 21.7927 62.1992 21.0059 61.9307C16.1958 60.2862 12.0256 58.117 9.05957 55.6895C6.09083 53.2596 4.34375 50.5831 4.34375 47.9248C4.34381 45.3556 5.97869 42.8138 8.78906 40.5078C11.5974 38.2035 15.5656 36.1467 20.1963 34.5469H20.1973C21.2076 34.1893 22.3082 33.8534 23.4102 33.54L23.498 33.5146L23.4756 33.4268C23.2283 32.4645 23.0038 31.5028 22.8242 30.542V30.541C21.8691 25.6754 21.7297 21.3023 22.3936 17.8223C23.0578 14.3408 24.523 11.7664 26.7637 10.4746V10.4736C29.0937 9.11534 32.225 9.15259 35.7715 10.4111C39.3164 11.6692 43.2623 14.1436 47.207 17.6338L47.208 17.6348C47.7012 18.0587 48.1726 18.5048 48.6455 18.9531L48.7119 19.0156L48.7764 18.9521C49.2813 18.4496 49.8239 17.946 50.377 17.4521L50.9326 16.9619C54.6861 13.7069 58.4181 11.4061 61.7773 10.2432ZM70.5479 63.3838C66.635 64.2567 62.6999 64.8615 58.7197 65.1973L58.6748 65.2012L58.6504 65.2373C56.4469 68.4825 53.9953 71.5717 51.3418 74.4814L51.2793 74.5498L51.3477 74.6133C52.0911 75.3084 52.8345 75.9813 53.5557 76.6094L53.5566 76.6104C56.7363 79.3264 59.8018 81.2091 62.4229 82.2139C65.0381 83.2163 67.2338 83.3523 68.6562 82.5352L68.6572 82.5361L68.668 82.5273C70.3543 81.189 71.4029 79.1936 71.5625 77.0615L71.5615 77.0605C72.0895 73.4603 72.0045 69.8009 71.2852 66.2666L71.1328 65.5605C70.9975 64.8651 70.8393 64.1694 70.6592 63.4521L70.6377 63.3643L70.5479 63.3838ZM26.8281 63.5869C26.5803 64.5513 26.3544 65.5166 26.1738 66.4824C25.3845 70.5904 25.2765 74.1763 25.7148 76.9375C26.1249 79.5205 27.0169 81.4031 28.2988 82.3018L28.5605 82.4688L28.5732 82.4746C30.5788 83.2684 32.8118 83.1774 34.7705 82.248L34.7695 82.2471C38.3788 80.8317 41.7179 78.7448 44.583 76.1406C45.148 75.6683 45.7137 75.1267 46.2744 74.6133L46.3438 74.5498L46.2803 74.4814C43.604 71.5713 41.0848 68.4821 38.791 65.2588L38.7656 65.2227L38.7227 65.2197L37.2324 65.0898C33.7637 64.7615 30.3424 64.2432 26.9385 63.5186L26.8506 63.499L26.8281 63.5869ZM43.4355 65.6611C45.1704 67.9261 46.9281 70.0351 48.709 71.9424L48.7783 72.0166L48.8467 71.9414C50.6718 69.9229 52.4079 67.8354 53.9639 65.6582L54.0752 65.5029L53.8838 65.5107C52.1513 65.5779 50.3968 65.6221 48.6201 65.6221C46.8883 65.6221 45.1786 65.5779 43.5137 65.5107L43.3135 65.502L43.4355 65.6611ZM48.6426 33.8711C45.9386 33.8711 43.28 33.9837 40.667 34.1631L40.6211 34.166L40.5957 34.2041C39.1089 36.4015 37.6897 38.6441 36.3604 40.9316C35.0309 43.2194 33.7916 45.5742 32.6426 47.9512L32.623 47.9922L32.6426 48.0332C33.8137 50.4094 35.0303 52.7644 36.3145 55.0518L36.3154 55.0527C37.6671 57.3624 39.0862 59.6051 40.5957 61.8027L40.6221 61.8408L40.668 61.8438C43.2359 62.0007 45.8493 62.0908 48.5977 62.0908C51.346 62.0908 54.0271 62.0007 56.6182 61.8213L56.6641 61.8184L56.6895 61.7803C57.9903 59.8381 59.2222 57.8953 60.4004 55.8926L60.9023 55.0303C62.2543 52.6978 63.4937 50.3434 64.665 47.9668L64.6846 47.9248L64.665 47.8838C63.6399 45.8038 62.5453 43.7581 61.3975 41.7471L60.9023 40.8867C59.5734 38.6222 58.1757 36.3797 56.6885 34.2041L56.6631 34.166L56.6182 34.1631L54.6592 34.042C52.6855 33.9348 50.6705 33.8711 48.6426 33.8711ZM30.6602 52.3242C29.5333 54.9487 28.5867 57.5291 27.8203 60.0195L27.79 60.1172L27.8896 60.1387C30.5496 60.722 33.2547 61.1488 35.959 61.4404L36.1553 61.4609L36.0469 61.2959C35.0802 59.819 34.1804 58.3191 33.3027 56.8184H33.3037C32.4492 55.341 31.6394 53.8408 30.8291 52.3174L30.7373 52.1445L30.6602 52.3242ZM66.5459 52.1836C65.7136 53.7508 64.8818 55.273 64.0049 56.7949C63.1265 58.2746 62.2492 59.7745 61.3271 61.2295L61.2227 61.3955L61.417 61.373C64.1444 61.0589 66.8718 60.5871 69.5762 59.9814L69.6758 59.959L69.6445 59.8623C68.8104 57.2369 67.8189 54.7014 66.7148 52.1895L66.6367 52.0127L66.5459 52.1836ZM24.2812 36.9004C23.5378 37.119 22.7815 37.3507 22.0312 37.5947L21.2832 37.8428C17.3262 39.2118 13.9682 40.9132 11.5977 42.6709C10.4125 43.5497 9.47084 44.4442 8.8252 45.3213C8.18005 46.1977 7.82526 47.063 7.8252 47.8799V47.8877L7.82715 47.8945C8.14749 49.8927 9.20809 51.6729 10.8037 52.8965L11.1299 53.1338C14.1813 55.562 18.401 57.3788 22.0957 58.5449C22.8171 58.7917 23.5383 59.0168 24.2598 59.2188L24.3477 59.2432L24.375 59.1562C25.5669 55.3735 27.0058 51.6352 28.6475 48.0088L28.665 47.9697L28.6475 47.9307C27.0058 44.3939 25.5668 40.6998 24.3975 36.9619L24.3691 36.874L24.2812 36.9004ZM72.8877 37.0068C71.6957 40.7229 70.3015 44.3488 68.6377 47.8623L68.6191 47.9033L68.6387 47.9434C70.3702 51.5247 71.8541 55.196 73.0684 58.9561L73.0957 59.04L73.1807 59.0176C73.7015 58.8823 74.1782 58.7247 74.6719 58.5684L74.6729 58.5674C79.0125 57.1424 82.7026 55.3349 85.3096 53.4541C86.6128 52.5139 87.6479 51.5531 88.3584 50.6104C89.0684 49.6681 89.459 48.7366 89.459 47.8574C89.4589 47.0451 89.0907 46.1793 88.4238 45.2998C87.7563 44.4196 86.784 43.5178 85.5625 42.6309C83.119 40.8567 79.6659 39.133 75.6191 37.7529H75.6172C74.7834 37.4838 73.9047 37.2143 73.0039 36.9453L72.916 36.9189L72.8877 37.0068ZM35.8896 34.6562C33.118 34.9927 30.4582 35.442 27.9561 36.0029L27.8564 36.0244L27.8877 36.1221C28.6539 38.5447 29.5776 41.08 30.6592 43.6816L30.7363 43.8672L30.8291 43.6885C31.6162 42.1664 32.4488 40.6664 33.3037 39.1885C34.1583 37.711 35.0575 36.2334 35.9795 34.8008L36.0879 34.6328L35.8896 34.6562ZM61.3271 34.8008C62.2493 36.2336 63.1268 37.6661 63.9814 39.1436L63.9824 39.1445C64.8592 40.6215 65.6909 42.1439 66.501 43.667L66.5928 43.8398L66.6699 43.6602C67.7289 41.1931 68.6758 38.7025 69.4648 36.167L69.4951 36.0703L69.3965 36.0479C66.8943 35.4645 64.2124 34.9927 61.418 34.6562L61.2197 34.6328L61.3271 34.8008ZM68.5889 13.3818C67.1766 12.5753 64.9514 12.7463 62.292 13.8018C59.6262 14.8598 56.4996 16.8155 53.2637 19.6211C52.565 20.2268 51.9103 20.8338 51.2139 21.46L51.1426 21.5234L51.208 21.5938C53.8835 24.4583 56.3567 27.5472 58.6055 30.748L58.6309 30.7832L58.6738 30.7871C62.5869 31.1453 66.5005 31.7501 70.3457 32.623L70.4316 32.6426L70.4561 32.5566C70.6143 31.9941 70.7503 31.4095 70.8633 30.8252C71.7765 26.3701 71.9523 22.443 71.5312 19.416C71.1111 16.3961 70.0919 14.245 68.5889 13.3818ZM35.2188 13.9834C32.3799 12.8357 29.9962 12.6415 28.4932 13.5156C27.0802 14.3226 26.1239 16.3284 25.7178 19.1494C25.3107 21.9774 25.4519 25.6519 26.2637 29.8379H26.2646C26.4451 30.7583 26.6475 31.6565 26.873 32.5322L26.8955 32.6201L26.9844 32.6006C30.8299 31.75 34.7202 31.1453 38.6328 30.8096L38.6758 30.8057L38.7012 30.7705C40.9725 27.5696 43.4464 24.5033 46.1445 21.6162L46.208 21.5479L46.1406 21.4834C45.6893 21.0567 45.2383 20.6524 44.8105 20.2715C41.3944 17.2527 38.0647 15.134 35.2188 13.9834ZM48.6182 24.1104C46.883 25.9946 45.1254 28.0806 43.4131 30.3008L43.29 30.4609L43.4912 30.4512C46.9325 30.2945 50.3742 30.2945 53.8154 30.4512L54.0127 30.46L53.8955 30.3018C52.2952 28.148 50.5816 26.0837 48.7559 24.1094L48.6875 24.0352L48.6182 24.1104Z" stroke="#080808" stroke-opacity="0.14" stroke-width="0.1875"/>
<g filter="url(#filter0_d_214_12)">
<path d="M68.0897 20.9511C68.0897 23.3058 66.1808 25.2147 63.8261 25.2147C62.7448 25.2147 61.7575 24.8122 61.0059 24.1488C60.1208 23.3676 59.5625 22.2245 59.5625 20.9511C59.5625 18.5964 61.4714 16.6875 63.8261 16.6875C66.1808 16.6875 68.0897 18.5964 68.0897 20.9511Z" fill="#E56262"/>
<path d="M63.8283 29.569C63.8283 29.569 60.131 23.3672 59.9889 22.7987C59.9168 22.5102 62.0158 24.6955 63.8283 24.7173C65.5874 24.7384 67.5573 22.5887 67.5923 22.7987C67.6634 23.225 63.8283 29.569 63.8283 29.569Z" fill="#E56262"/>
<path d="M65.6737 21.0222C65.6737 22.0033 64.8783 22.7987 63.8972 22.7987C62.916 22.7987 62.1207 22.0033 62.1207 21.0222C62.1207 20.041 62.916 19.2457 63.8972 19.2457C64.8783 19.2457 65.6737 20.041 65.6737 21.0222Z" fill="white"/>
</g>
<path d="M55.25 40.5V55.5H51.8132L46.3321 47.6191H46.2432V55.5H42.125V40.5H45.621L51.0133 48.3516H51.1318V40.5H55.25Z" fill="#05D686"/>
<path d="M45.6699 40.4062L45.6982 40.4473L51.0381 48.2217V40.4062H55.3438V55.5938H51.7646L51.7363 55.5537L46.3369 47.79V55.5938H42.0312V40.4062H45.6699Z" stroke="black" stroke-opacity="0.15" stroke-width="0.1875"/>
<defs>
<filter id="filter0_d_214_12" x="58.8125" y="16.6875" width="10.0273" height="14.3815" filterUnits="userSpaceOnUse" color-interpolation-filters="sRGB">
<feFlood flood-opacity="0" result="BackgroundImageFix"/>
<feColorMatrix in="SourceAlpha" type="matrix" values="0 0 0 0 0 0 0 0 0 0 0 0 0 0 0 0 0 0 127 0" result="hardAlpha"/>
<feOffset dy="0.75"/>
<feGaussianBlur stdDeviation="0.375"/>
<feComposite in2="hardAlpha" operator="out"/>
<feColorMatrix type="matrix" values="0 0 0 0 0.96403 0 0 0 0 0.397364 0 0 0 0 0.397364 0 0 0 0.25 0"/>
<feBlend mode="normal" in2="BackgroundImageFix" result="effect1_dropShadow_214_12"/>
<feBlend mode="normal" in="SourceGraphic" in2="effect1_dropShadow_214_12" result="shape"/>
</filter>
<linearGradient id="paint0_linear_214_12" x1="59.9375" y1="40.125" x2="16.8261" y2="78.7434" gradientUnits="userSpaceOnUse">
<stop stop-color="#AFEDD0"/>
<stop offset="0.4" stop-color="#05D686" stop-opacity="0.85"/>
<stop offset="0.91" stop-color="#AFEDD0" stop-opacity="0.61"/>
</linearGradient>
</defs>
</svg>
