<svg width="512" height="512" viewBox="0 0 512 512" fill="none" xmlns="http://www.w3.org/2000/svg">
<path fill-rule="evenodd" clip-rule="evenodd" d="M322.25 147.35C314.825 147.415 273.214 147.693 229.782 147.969C165.92 148.376 150.688 148.598 150.159 149.126C149.799 149.486 149.385 150.804 149.238 152.054C149.024 153.874 149.18 154.595 150.021 155.664L151.072 157H179.286H207.5V160.75V164.5L177.125 164.588C122.658 164.746 123.943 164.718 123.174 165.77C122.454 166.753 122.273 169.888 122.882 170.8C123.955 172.407 125.491 172.5 150.967 172.5C171.97 172.5 176.5 172.619 176.5 173.169C176.5 174.907 178.462 175 215.023 175H251V179.197C251 182.562 250.843 183.453 250.209 183.697C249.774 183.864 228.674 184 203.32 184C150.832 184 155 183.638 155 188.201C155 192.874 151.532 192.5 194.914 192.5H233V197.421V202.342L220.875 202.619C214.206 202.771 200.875 202.931 191.25 202.975C174.261 203.053 173.724 203.085 172.875 204.083C171.691 205.473 171.761 208.056 173.019 209.406C174.036 210.497 174.095 210.5 194.484 210.5H214.93L215.09 211.625L215.25 212.75L233.125 212.882L251 213.012V216.757V220.5H225.786H200.572L199.536 221.818C198.224 223.485 198.209 225.709 199.5 227C200.451 227.951 201.166 228 214.25 228H228V231V234H195.845C168.978 234 163.532 234.116 162.728 234.704C161.435 235.649 161.472 239.378 162.783 240.337C163.521 240.876 171.86 241 207.345 241H251V244.682V248.364L248.68 248.682C247.404 248.857 233.358 249 217.466 249H188.572L187.536 250.318C186.203 252.013 186.185 254.686 187.5 256C188.463 256.964 189.166 257 206.75 257H225V260.5V264H238H251V267V270H214.577C179.927 270 178.114 270.044 177.327 270.914C176.266 272.087 176.237 275.902 177.278 277.388L178.056 278.5H206.278H234.5V283.427V288.353L230.674 288.677C228.57 288.855 210.246 289 189.953 289H153.056L152.278 290.112C151.162 291.704 151.278 294.778 152.5 296C153.461 296.961 154.166 297 170.672 297C187.21 297 187.878 297.037 188.75 298C189.636 298.979 190.29 299 220.827 299H252V303.25V307.5H215.077C173.236 307.5 176.5 307.154 176.5 311.587C176.5 315.704 175.204 315.5 201.437 315.5H224.545L224.398 318.875L224.25 322.25L196 322.371C167.901 322.491 167.745 322.498 166.875 323.552C165.737 324.929 165.757 327.257 166.917 328.417C167.772 329.272 169.482 329.357 191.999 329.667C205.29 329.85 220.609 330 226.041 330C231.473 330 236.274 330.136 236.709 330.303C237.295 330.528 237.5 331.306 237.5 333.303C237.5 335.741 237.392 336.008 236.375 336.085C235.756 336.132 224.9 336.188 212.25 336.21L189.25 336.25L189.092 338.163C188.998 339.311 189.252 340.561 189.729 341.288L190.523 342.5H284.187H377.852L379.551 341.365C382.936 339.104 383.045 338.479 382.889 322.25C382.751 307.852 382.741 307.738 381.55 306.069C379.269 302.87 381.286 303 334.083 303C291.39 303 291.127 302.994 289.817 301.964L288.5 300.927V284.214C288.5 268.167 288.54 267.46 289.5 266.5C290.481 265.519 291.168 265.5 325.875 265.497C348.592 265.496 361.913 265.31 363.103 264.979C364.25 264.661 365.394 263.852 366.103 262.858C367.228 261.281 367.253 260.965 367.395 246.477C367.562 229.602 367.371 228.31 364.5 226.876C362.882 226.068 360.02 226.002 326.719 226.001C291.151 226 290.674 225.987 289.594 224.98C288.512 223.972 288.5 223.782 288.5 207.767V191.572L289.817 190.536C291.127 189.506 291.388 189.5 334.243 189.5H377.352L379.024 188.374C379.943 187.754 381.158 186.46 381.723 185.499C382.709 183.819 382.743 183.142 382.587 168.25C382.405 150.998 382.28 150.282 379.051 148.132L377.352 147L356.551 147.117C345.11 147.181 329.675 147.286 322.25 147.35ZM141.25 185.362C138.323 185.574 137.5 186.386 137.5 189.06C137.5 191.838 138.461 192.5 142.499 192.5C145.607 192.5 146.024 192.377 146.963 191.182C147.533 190.458 148 189.363 148 188.75C148 187.136 146.139 184.982 144.838 185.09C144.24 185.139 142.625 185.262 141.25 185.362ZM147.827 321.914C146.689 323.172 146.777 325.778 148 327C148.842 327.842 149.666 328 153.221 328C157.017 328 157.522 327.888 158.221 326.888C159.341 325.29 159.182 323.637 157.772 322.228C156.677 321.132 156.122 321 152.6 321C149.413 321 148.496 321.175 147.827 321.914Z" fill="black"/>
</svg>
